<svg width="18" height="18" viewBox="0 0 18 18" fill="none" xmlns="http://www.w3.org/2000/svg">
<path d="M9 4.50006C9.82843 4.50006 10.5 3.82849 10.5 3.00006C10.5 2.17163 9.82843 1.50006 9 1.50006C8.17157 1.50006 7.5 2.17163 7.5 3.00006C7.5 3.82849 8.17157 4.50006 9 4.50006Z" fill="black"/>
<path d="M14.25 9.75006V8.25006C13.095 8.26506 11.9325 7.68756 11.1975 6.87756L10.23 5.80506C10.1025 5.66256 9.94501 5.55006 9.77251 5.46756C9.76501 5.46756 9.76501 5.46006 9.75751 5.46006H9.75001C9.48751 5.31006 9.18752 5.23506 8.85752 5.26506C8.07002 5.33256 7.50001 6.03006 7.50001 6.81756V11.2501C7.50001 12.0751 8.17501 12.7501 9.00001 12.7501H12.75V16.5001H14.25V12.3751C14.25 11.5501 13.575 10.8751 12.75 10.8751H10.5V8.28756C11.4675 9.09006 12.9375 9.74256 14.25 9.75006ZM9.62251 13.5001C9.31501 14.3701 8.48251 15.0001 7.50001 15.0001C6.25501 15.0001 5.25001 13.9951 5.25001 12.7501C5.25001 11.7676 5.88001 10.9426 6.75001 10.6276V9.07506C6.08633 9.21072 5.47179 9.52361 4.97167 9.98051C4.47155 10.4374 4.10453 11.0212 3.90959 11.67C3.71466 12.3187 3.6991 13.0082 3.86456 13.6651C4.03002 14.322 4.37033 14.9218 4.84933 15.4008C5.32832 15.8797 5.92812 16.2201 6.58501 16.3855C7.24189 16.551 7.93133 16.5354 8.58008 16.3405C9.22884 16.1456 9.81267 15.7785 10.2696 15.2784C10.7265 14.7783 11.0394 14.1637 11.175 13.5001H9.62251Z" fill="black"/>
</svg>
