<svg width="18" height="18" viewBox="0 0 18 18" fill="none" xmlns="http://www.w3.org/2000/svg">
<path d="M6.486 11.0332L8.99775 13.5L11.5103 11.0332C11.6652 10.8843 11.7884 10.7055 11.8726 10.5078C11.9568 10.31 12.0002 10.0973 12.0002 9.88237C12.0002 9.66744 11.9568 9.45472 11.8726 9.25696C11.7884 9.05921 11.6652 8.88048 11.5103 8.73149C11.198 8.42325 10.7768 8.25041 10.338 8.25041C9.8992 8.25041 9.47805 8.42325 9.16575 8.73149L8.99775 8.89574L8.82975 8.73149C8.51758 8.42329 8.09656 8.25048 7.65788 8.25048C7.2192 8.25048 6.79818 8.42329 6.486 8.73149C6.33109 8.88048 6.20785 9.05921 6.12367 9.25696C6.03949 9.45472 5.99609 9.66744 5.99609 9.88237C5.99609 10.0973 6.03949 10.31 6.12367 10.5078C6.20785 10.7055 6.33109 10.8843 6.486 11.0332Z" fill="black"/>
<path d="M14.25 3H12.75V1.5H11.25V3H6.75V1.5H5.25V3H3.75C2.92275 3 2.25 3.67275 2.25 4.5V15C2.25 15.8273 2.92275 16.5 3.75 16.5H14.25C15.0773 16.5 15.75 15.8273 15.75 15V4.5C15.75 3.67275 15.0773 3 14.25 3ZM14.2515 15H3.75V6H14.25L14.2515 15Z" fill="black"/>
</svg>
