<svg width="20" height="20" viewBox="0 0 20 20" fill="none" xmlns="http://www.w3.org/2000/svg">
    <path d="M1.625 9C1.625 4.92731 4.92731 1.625 9 1.625C13.0727 1.625 16.375 4.92731 16.375 9C16.375 13.0727 13.0727 16.375 9 16.375C4.92731 16.375 1.625 13.0727 1.625 9ZM1.96094 9C1.96094 12.8867 5.11331 16.0391 9 16.0391C12.8867 16.0391 16.0391 12.8867 16.0391 9C16.0391 5.11331 12.8867 1.96094 9 1.96094C5.11331 1.96094 1.96094 5.11331 1.96094 9Z" fill="black" stroke="#4E4E4E"/>
    <path d="M10.9617 5.56699C10.4344 5.10469 9.73828 4.85156 9 4.85156C8.26172 4.85156 7.56562 5.10645 7.03828 5.56699C6.48984 6.04688 6.1875 6.69199 6.1875 7.38281V7.51641C6.1875 7.59375 6.25078 7.65703 6.32812 7.65703H7.17188C7.24922 7.65703 7.3125 7.59375 7.3125 7.51641V7.38281C7.3125 6.60762 8.07012 5.97656 9 5.97656C9.92988 5.97656 10.6875 6.60762 10.6875 7.38281C10.6875 7.92949 10.3008 8.43047 9.70137 8.66074C9.32871 8.80313 9.0123 9.05273 8.78555 9.37969C8.55527 9.71367 8.43574 10.1145 8.43574 10.5205V10.8984C8.43574 10.9758 8.49902 11.0391 8.57637 11.0391H9.42012C9.49746 11.0391 9.56074 10.9758 9.56074 10.8984V10.4994C9.56165 10.3288 9.61396 10.1624 9.71085 10.0219C9.80774 9.88141 9.94471 9.77339 10.1039 9.71191C11.141 9.31289 11.8107 8.39883 11.8107 7.38281C11.8125 6.69199 11.5102 6.04688 10.9617 5.56699ZM8.29688 12.8672C8.29688 13.0537 8.37095 13.2325 8.50282 13.3644C8.63468 13.4962 8.81352 13.5703 9 13.5703C9.18648 13.5703 9.36532 13.4962 9.49718 13.3644C9.62905 13.2325 9.70312 13.0537 9.70312 12.8672C9.70312 12.6807 9.62905 12.5019 9.49718 12.37C9.36532 12.2381 9.18648 12.1641 9 12.1641C8.81352 12.1641 8.63468 12.2381 8.50282 12.37C8.37095 12.5019 8.29688 12.6807 8.29688 12.8672Z" fill="black"/>
</svg>
