<svg width="19" height="19" viewBox="0 0 19 19" fill="none" xmlns="http://www.w3.org/2000/svg">
<path class="icon__color-element" d="M9.5 0C4.25363 0 0 4.25363 0 9.5C0 14.7464 4.25363 19 9.5 19C14.7464 19 19 14.7464 19 9.5C19 4.25363 14.7464 0 9.5 0ZM14.1661 6.50829L12.6065 13.855C12.4917 14.3759 12.1814 14.5025 11.7483 14.2571L9.37333 12.5075L8.22858 13.6111C8.17249 13.6837 8.10052 13.7425 8.01818 13.783C7.93585 13.8235 7.84533 13.8446 7.75358 13.8447H7.74962L7.91825 11.4269L12.3199 7.45117C12.5099 7.28254 12.2772 7.18675 12.0246 7.35538L6.58667 10.7801L4.24333 10.0486C3.73667 9.88792 3.72242 9.54196 4.35021 9.29338L13.5066 5.76413C13.9325 5.60896 14.303 5.86546 14.1653 6.50908L14.1661 6.50829Z" fill="#000000"/>
</svg>
