<svg width="15" height="15" viewBox="0 0 15 15" fill="none" xmlns="http://www.w3.org/2000/svg">
<g clip-path="url(#clip0_185_2587)">
<path d="M1.75622 7.5C1.75622 4.3278 4.3278 1.75622 7.5 1.75622C10.6722 1.75622 13.2438 4.3278 13.2438 7.5C13.2438 8.48911 12.9938 9.41983 12.5535 10.2324C13.1814 10.284 13.7329 10.6055 14.0917 11.0806C14.6709 10.0166 15 8.7967 15 7.5C15 3.35786 11.6421 0 7.5 0C3.35786 0 0 3.35786 0 7.5C0 11.6421 3.35786 15 7.5 15C8.79664 15 10.0164 14.671 11.0804 14.0918C10.6053 13.733 10.2839 13.1815 10.2323 12.5535C9.41973 12.9938 8.48906 13.2438 7.5 13.2438C4.3278 13.2438 1.75622 10.6722 1.75622 7.5Z" fill="#B5B5B5"/>
<circle cx="12.3749" cy="12.3749" r="1.59267" fill="#48C8CD"/>
</g>
<defs>
<clipPath id="clip0_185_2587">
<rect width="15" height="15" fill="white"/>
</clipPath>
</defs>
</svg>
