<svg width="44" height="55" viewBox="0 0 44 55" fill="none" xmlns="http://www.w3.org/2000/svg">
<path opacity="0.9" d="M44 46.5508C44 49.6554 40.2394 51.2022 38.0549 48.9962L23.1663 33.9606L6.32708 17.9978C4.04732 15.8367 5.57682 12 8.71811 12L40.5245 12C42.444 12 44 13.556 44 15.4755L44 46.5508Z" fill="#EAEBEC"/>
<path d="M30 31C30 31.5523 30.4477 32 31 32C31.5523 32 32 31.5523 32 31H30ZM31.7071 0.292892C31.3166 -0.0976315 30.6834 -0.0976315 30.2929 0.292892L23.9289 6.65685C23.5384 7.04738 23.5384 7.68054 23.9289 8.07107C24.3195 8.46159 24.9526 8.46159 25.3431 8.07107L31 2.41421L36.6569 8.07107C37.0474 8.46159 37.6805 8.46159 38.0711 8.07107C38.4616 7.68054 38.4616 7.04738 38.0711 6.65685L31.7071 0.292892ZM32 31V1H30V31H32Z" fill="#EB3E2B"/>
</svg>
