<svg width="102" height="16" viewBox="0 0 102 16" fill="none" xmlns="http://www.w3.org/2000/svg">
<path class="icon__color-element" d="M1 7C0.447715 7 4.82823e-08 7.44772 0 8C-4.82823e-08 8.55228 0.447715 9 1 9L1 7ZM101.707 8.70712C102.098 8.31659 102.098 7.68343 101.707 7.2929L95.3431 0.92894C94.9526 0.538416 94.3195 0.538416 93.9289 0.92894C93.5384 1.31946 93.5384 1.95263 93.9289 2.34315L99.5858 8.00001L93.9289 13.6569C93.5384 14.0474 93.5384 14.6806 93.9289 15.0711C94.3195 15.4616 94.9526 15.4616 95.3431 15.0711L101.707 8.70712ZM1 9L101 9.00001L101 7.00001L1 7L1 9Z" fill="#000000"/>
</svg>
