<svg width="79" height="70" viewBox="0 0 79 70" xmlns="http://www.w3.org/2000/svg">
<path class="icon__color-element" fill-rule="evenodd" clip-rule="evenodd" d="M35.4466 0.716663C35.8424 1.11246 35.8424 1.75419 35.4466 2.14999L3.8802 33.7164L37.8819 33.7164C38.4416 33.7164 38.8954 34.1702 38.8954 34.7299C38.8954 35.2897 38.4416 35.7434 37.8819 35.7434L3.8802 35.7435L35.4466 67.3099C35.8424 67.7057 35.8424 68.3474 35.4466 68.7432C35.0508 69.139 34.4091 69.139 34.0133 68.7432L0.716691 35.4466C0.320889 35.0508 0.320889 34.4091 0.716692 34.0133L34.0133 0.716663C34.4091 0.320861 35.0508 0.320861 35.4466 0.716663Z" fill="#000000"/>
<path class="icon__color-element" fill-rule="evenodd" clip-rule="evenodd" d="M78.1447 34.76L45.5268 2.14206C42.8026 -0.582117 38.1447 1.34725 38.1447 5.19982V64.3201C38.1447 68.1727 42.8026 70.102 45.5268 67.3779L78.1447 34.76ZM74.2645 35.7735H40.1717V64.3201C40.1717 66.3668 42.6463 67.3918 44.0935 65.9445L74.2645 35.7735ZM40.1717 33.7464H74.2645L44.0935 3.57538C42.6463 2.12816 40.1717 3.15314 40.1717 5.19982V33.7464Z" fill="#000000"/>
</svg>