<svg width="20" height="20" viewBox="0 0 20 20" fill="none" xmlns="http://www.w3.org/2000/svg">
<path class="icon__color-element" d="M9.98842 10.2842C7.63425 10.2842 5.67758 8.32916 5.67758 6.01582C5.67758 3.62249 7.63425 1.66666 9.98925 1.66666C12.4242 1.66666 14.3001 3.62166 14.3001 6.01582C14.2959 7.1517 13.8409 8.23944 13.035 9.03997C12.2292 9.8405 11.1385 10.2883 10.0026 10.285L9.98842 10.2842ZM9.98842 4.18082C8.99175 4.18082 8.23342 5.01832 8.23342 6.01666C8.23342 7.01332 8.99175 7.77166 9.98925 7.77166C11.0267 7.77166 11.7451 7.01332 11.7451 6.01666C11.7459 5.01749 11.0267 4.18082 9.98842 4.18082ZM11.7051 13.8358L14.1409 16.19C14.6201 16.7075 14.6201 17.4658 14.1409 17.945C13.6226 18.4625 12.8234 18.4625 12.4242 17.945L9.98925 15.5508L7.63425 17.945C7.39508 18.1842 7.07508 18.3033 6.71508 18.3033C6.43591 18.3033 6.11675 18.1833 5.83675 17.945C5.35758 17.4658 5.35758 16.7075 5.83675 16.1892L8.31175 13.835C7.41794 13.5703 6.56053 13.1955 5.75925 12.7192C5.16008 12.4 5.04092 11.6025 5.36008 11.0033C5.75925 10.405 6.47758 10.2458 7.11675 10.645C7.98225 11.1732 8.97657 11.4526 9.9905 11.4526C11.0044 11.4526 11.9988 11.1732 12.8642 10.645C13.5034 10.2458 14.2609 10.405 14.6201 11.0033C14.9801 11.6025 14.8192 12.3992 14.2601 12.7192C13.5026 13.1983 12.6242 13.5575 11.7059 13.8367L11.7051 13.8358Z" fill="black"/>
</svg>
