<svg width="18" height="18" viewBox="0 0 18 18" fill="none" xmlns="http://www.w3.org/2000/svg">
<path d="M3.75 3.75H14.25C14.6478 3.75 15.0294 3.90804 15.3107 4.18934C15.592 4.47064 15.75 4.85218 15.75 5.25V7.5C15.3522 7.5 14.9706 7.65804 14.6893 7.93934C14.408 8.22064 14.25 8.60218 14.25 9C14.25 9.39782 14.408 9.77936 14.6893 10.0607C14.9706 10.342 15.3522 10.5 15.75 10.5V12.75C15.75 13.1478 15.592 13.5294 15.3107 13.8107C15.0294 14.092 14.6478 14.25 14.25 14.25H3.75C3.35218 14.25 2.97064 14.092 2.68934 13.8107C2.40804 13.5294 2.25 13.1478 2.25 12.75V10.5C2.64782 10.5 3.02936 10.342 3.31066 10.0607C3.59196 9.77936 3.75 9.39782 3.75 9C3.75 8.60218 3.59196 8.22064 3.31066 7.93934C3.02936 7.65804 2.64782 7.5 2.25 7.5V5.25C2.25 4.85218 2.40804 4.47064 2.68934 4.18934C2.97064 3.90804 3.35218 3.75 3.75 3.75M11.25 3.75V5.25V3.75ZM11.25 8.25V9.75V8.25ZM11.25 12.75V14.25V12.75Z" stroke="black" stroke-linecap="round" stroke-linejoin="round"/>
</svg>
