<svg width="18" height="18" viewBox="0 0 18 18" fill="none" xmlns="http://www.w3.org/2000/svg">
<g clip-path="url(#clip0_1091_4718)">
<path d="M4.2 6.59996L3.6936 6.27836L3.6 6.42476V6.59996H4.2ZM9 6.59996L8.4636 6.33116C8.41776 6.42264 8.39608 6.52432 8.40061 6.62653C8.40514 6.72875 8.43573 6.82811 8.48949 6.91517C8.54324 7.00223 8.61836 7.0741 8.70771 7.12394C8.79707 7.17379 8.89768 7.19996 9 7.19996V6.59996ZM17.4 12.6L17.88 12.96L18 12.8004V12.6H17.4ZM0 5.99996V18H1.2V5.99996H0ZM4.7064 6.92156L7.9428 1.83596L6.9312 1.19036L3.6936 6.27836L4.7064 6.92156ZM10.1004 3.05756L8.4636 6.33116L9.5364 6.86756L11.1744 3.59156L10.1004 3.05636V3.05756ZM9 7.19996H15V5.99996H9V7.19996ZM16.8 8.99996V12.6H18V8.99996H16.8ZM16.92 12.24L14.04 16.08L15 16.8L17.88 12.96L16.92 12.24ZM12.6 16.8H6.6V18H12.6V16.8ZM4.8 15V6.59996H3.6V15H4.8ZM15 7.19996C15.4774 7.19996 15.9352 7.38961 16.2728 7.72717C16.6104 8.06474 16.8 8.52257 16.8 8.99996H18C18 8.20431 17.6839 7.44125 17.1213 6.87864C16.5587 6.31603 15.7957 5.99996 15 5.99996V7.19996ZM6.6 16.8C6.12261 16.8 5.66477 16.6103 5.32721 16.2728C4.98964 15.9352 4.8 15.4774 4.8 15H3.6C3.6 15.7956 3.91607 16.5587 4.47868 17.1213C5.04129 17.6839 5.80435 18 6.6 18V16.8ZM9.6288 1.43756C10.1856 1.77116 10.3908 2.47676 10.1004 3.05756L11.1744 3.59156C11.4495 3.04149 11.5067 2.40905 11.3348 1.81857C11.1628 1.2281 10.7742 0.724307 10.2468 0.407963L9.6288 1.43756ZM14.04 16.08C13.8723 16.3035 13.6549 16.485 13.405 16.6099C13.155 16.7349 12.8794 16.8 12.6 16.8V18C13.0657 18 13.5251 17.8915 13.9416 17.6832C14.3582 17.475 14.7206 17.1726 15 16.8L14.04 16.08ZM7.9428 1.83596C8.3028 1.26716 9.0528 1.09196 9.6288 1.43756L10.248 0.407963C9.70241 0.0804259 9.05048 -0.0210839 8.43113 0.125066C7.81178 0.271217 7.27281 0.65347 6.9312 1.19036L7.944 1.83476L7.9428 1.83596Z" fill="#4E4E4E"/>
</g>
<defs>
<clipPath id="clip0_1091_4718">
<rect width="18" height="18" fill="white"/>
</clipPath>
</defs>
</svg>
