<svg width="20" height="12" viewBox="0 0 20 12" fill="none" xmlns="http://www.w3.org/2000/svg">
<path class="icon__color-element" fill-rule="evenodd" clip-rule="evenodd" d="M17.8021 8.29799C17.8021 8.29799 19.4191 9.89499 19.8191 10.634C19.8269 10.6447 19.8329 10.6565 19.8371 10.669C20.0001 10.942 20.0401 11.156 19.9601 11.314C19.8251 11.575 19.3681 11.706 19.2131 11.717H16.3551C16.1561 11.717 15.7421 11.665 15.2381 11.317C14.8531 11.048 14.4701 10.605 14.0991 10.172C13.5451 9.52899 13.0661 8.97099 12.5811 8.97099C12.5198 8.97086 12.459 8.981 12.4011 9.00099C12.0341 9.11699 11.5681 9.63999 11.5681 11.033C11.5681 11.469 11.2241 11.717 10.9831 11.717H9.67409C9.22809 11.717 6.90609 11.561 4.84709 9.38999C2.32409 6.73199 0.05809 1.39999 0.03609 1.35299C-0.10491 1.00799 0.19109 0.81999 0.51109 0.81999H3.39709C3.78409 0.81999 3.91009 1.05399 3.99809 1.26399C4.10009 1.50499 4.47809 2.46899 5.09809 3.55199C6.10209 5.31399 6.71909 6.03099 7.21209 6.03099C7.30471 6.03126 7.39577 6.00712 7.47609 5.96099C8.12009 5.60699 8.00009 3.30699 7.97009 2.83299C7.97009 2.74099 7.96909 1.80599 7.63909 1.35399C7.40309 1.02999 7.00109 0.903989 6.75809 0.857989C6.82309 0.763989 6.96109 0.619989 7.13809 0.534989C7.57909 0.314989 8.37609 0.28299 9.16709 0.28299H9.60609C10.4641 0.29499 10.6861 0.349989 10.9981 0.428989C11.6261 0.578989 11.6381 0.98599 11.5831 2.37199C11.5671 2.76799 11.5501 3.21399 11.5501 3.73899C11.5501 3.85099 11.5451 3.97599 11.5451 4.10299C11.5261 4.81399 11.5011 5.61499 12.0031 5.94399C12.0682 5.98455 12.1434 6.00603 12.2201 6.00599C12.3941 6.00599 12.9151 6.00599 14.3281 3.58099C14.9481 2.50999 15.4281 1.24699 15.4611 1.15199C15.4891 1.09899 15.5731 0.949989 15.6751 0.889989C15.7476 0.851385 15.8289 0.8321 15.9111 0.83399H19.3061C19.6761 0.83399 19.9271 0.88999 19.9761 1.02999C20.0581 1.25699 19.9601 1.94999 18.4101 4.04599C18.1491 4.39499 17.9201 4.69699 17.7191 4.96099C16.3141 6.80499 16.3141 6.89799 17.8021 8.29799Z" fill="black"/>
</svg>
