<?xml version="1.0" encoding="utf-8"?><svg xmlns="http://www.w3.org/2000/svg" xmlns:xlink="http://www.w3.org/1999/xlink"><symbol fill="none" viewBox="0 0 20 20" id="icon-eye"><g clip-path="url(#aa)"><path class="icon__color-element" d="M0.833328 10C0.833328 10 4.16666 3.33334 9.99999 3.33334C15.8333 3.33334 19.1667 10 19.1667 10C19.1667 10 15.8333 16.6667 9.99999 16.6667C4.16666 16.6667 0.833328 10 0.833328 10Z" stroke="black" stroke-width="2" stroke-linecap="round" stroke-linejoin="round"/><path class="icon__color-element" d="M10 12.5C11.3807 12.5 12.5 11.3807 12.5 10C12.5 8.61929 11.3807 7.5 10 7.5C8.61929 7.5 7.5 8.61929 7.5 10C7.5 11.3807 8.61929 12.5 10 12.5Z" stroke="black" stroke-width="2" stroke-linecap="round" stroke-linejoin="round"/></g><defs><clipPath id="aa"><rect width="20" height="20" fill="white"/></clipPath></defs></symbol><symbol fill="none" viewBox="0 0 79 70" id="icon-logo"><path class="icon__color-element" fill-rule="evenodd" clip-rule="evenodd" d="M35.4466 0.716663C35.8424 1.11246 35.8424 1.75419 35.4466 2.14999L3.8802 33.7164L37.8819 33.7164C38.4416 33.7164 38.8954 34.1702 38.8954 34.7299C38.8954 35.2897 38.4416 35.7434 37.8819 35.7434L3.8802 35.7435L35.4466 67.3099C35.8424 67.7057 35.8424 68.3474 35.4466 68.7432C35.0508 69.139 34.4091 69.139 34.0133 68.7432L0.716691 35.4466C0.320889 35.0508 0.320889 34.4091 0.716692 34.0133L34.0133 0.716663C34.4091 0.320861 35.0508 0.320861 35.4466 0.716663Z" fill="black"/><path class="icon__color-element" fill-rule="evenodd" clip-rule="evenodd" d="M78.1447 34.76L45.5268 2.14206C42.8026 -0.582117 38.1447 1.34725 38.1447 5.19982V64.3201C38.1447 68.1727 42.8026 70.102 45.5268 67.3779L78.1447 34.76ZM74.2645 35.7735H40.1717V64.3201C40.1717 66.3668 42.6463 67.3918 44.0935 65.9445L74.2645 35.7735ZM40.1717 33.7464H74.2645L44.0935 3.57538C42.6463 2.12816 40.1717 3.15314 40.1717 5.19982V33.7464Z" fill="black"/></symbol><symbol fill="none" viewBox="0 0 20 20" id="icon-search"><path class="icon__color-element" d="M9.16667 15.8333C12.8486 15.8333 15.8333 12.8486 15.8333 9.16667C15.8333 5.48477 12.8486 2.5 9.16667 2.5C5.48477 2.5 2.5 5.48477 2.5 9.16667C2.5 12.8486 5.48477 15.8333 9.16667 15.8333Z" stroke="black" stroke-width="2" stroke-linecap="round" stroke-linejoin="round"/><path class="icon__color-element" d="M17.5 17.5L13.875 13.875" stroke="black" stroke-width="2" stroke-linecap="round" stroke-linejoin="round"/></symbol><symbol fill="none" viewBox="0 0 19 19" id="icon-telegtam"><path class="icon__color-element" d="M9.5 0C4.25363 0 0 4.25363 0 9.5C0 14.7464 4.25363 19 9.5 19C14.7464 19 19 14.7464 19 9.5C19 4.25363 14.7464 0 9.5 0ZM14.1661 6.50829L12.6065 13.855C12.4917 14.3759 12.1814 14.5025 11.7483 14.2571L9.37333 12.5075L8.22858 13.6111C8.17249 13.6837 8.10052 13.7425 8.01818 13.783C7.93585 13.8235 7.84533 13.8446 7.75358 13.8447H7.74962L7.91825 11.4269L12.3199 7.45117C12.5099 7.28254 12.2772 7.18675 12.0246 7.35538L6.58667 10.7801L4.24333 10.0486C3.73667 9.88792 3.72242 9.54196 4.35021 9.29338L13.5066 5.76413C13.9325 5.60896 14.303 5.86546 14.1653 6.50908L14.1661 6.50829Z" fill="#000000"/></symbol><symbol fill="none" viewBox="0 0 19 19" id="icon-vk"><path class="icon__color-element" d="M9.5 0C4.25323 0 0 4.25323 0 9.5C0 14.7468 4.25323 19 9.5 19C14.7468 19 19 14.7468 19 9.5C19 4.25323 14.7468 0 9.5 0ZM13.1535 10.7182C13.1535 10.7182 13.9937 11.5474 14.2005 11.9324C14.2065 11.9403 14.2094 11.9482 14.2114 11.9522C14.2955 12.0937 14.3153 12.2035 14.2738 12.2857C14.2045 12.4222 13.967 12.4895 13.8858 12.4955H12.4015C12.2985 12.4955 12.0828 12.4688 11.8216 12.2886C11.6207 12.1481 11.4228 11.9176 11.2298 11.6929C10.9418 11.3584 10.6924 11.0695 10.4411 11.0695C10.4092 11.0694 10.3774 11.0744 10.3471 11.0843C10.1571 11.1457 9.91365 11.4168 9.91365 12.1392C9.91365 12.3648 9.73552 12.4945 9.60984 12.4945H8.93C8.69844 12.4945 7.49214 12.4133 6.42339 11.2862C5.11516 9.90573 3.93755 7.13687 3.92766 7.11115C3.85344 6.93203 4.00682 6.83604 4.17406 6.83604H5.67328C5.87318 6.83604 5.93849 6.95776 5.98401 7.06562C6.03745 7.1913 6.23339 7.69104 6.555 8.25313C7.07651 9.16948 7.39615 9.54156 7.65245 9.54156C7.70051 9.541 7.74771 9.52877 7.79 9.50594C8.12448 9.3199 8.06214 8.12745 8.04729 7.88005C8.04729 7.83354 8.0463 7.34667 7.8751 7.11312C7.7524 6.94391 7.54359 6.87958 7.41693 6.85583C7.46819 6.78509 7.53574 6.72773 7.61385 6.68859C7.84344 6.5738 8.25708 6.55698 8.66776 6.55698H8.89635C9.34167 6.56292 9.45646 6.59161 9.61776 6.63219C9.94432 6.71036 9.95125 6.92115 9.92255 7.64255C9.91365 7.8474 9.90474 8.07896 9.90474 8.35208C9.90474 8.41146 9.90177 8.47479 9.90177 8.54208C9.89188 8.90922 9.88 9.32583 10.1393 9.49703C10.1731 9.51824 10.2122 9.52955 10.2521 9.52969C10.3421 9.52969 10.6133 9.52969 11.3476 8.26995C11.574 7.86447 11.7708 7.44313 11.9364 7.00922C11.9512 6.98349 11.9947 6.90432 12.0462 6.87365C12.0842 6.85429 12.1263 6.84444 12.1689 6.84495H13.9314C14.1233 6.84495 14.2549 6.87365 14.2797 6.94786C14.3232 7.06562 14.2718 7.42484 13.4672 8.51437L13.108 8.98839C12.3787 9.94432 12.3787 9.99281 13.1535 10.7182Z" fill="#000000"/></symbol><symbol fill="none" viewBox="0 0 19 19" id="icon-youtube"><path class="icon__color-element" d="M11.0237 9.34026L8.89001 8.34466C8.70381 8.25821 8.55086 8.35511 8.55086 8.56126V10.4366C8.55086 10.6427 8.70381 10.7396 8.89001 10.6532L11.0228 9.65756C11.2099 9.57016 11.2099 9.42766 11.0237 9.34026ZM9.50086 0.378906C4.46396 0.378906 0.380859 4.46201 0.380859 9.49891C0.380859 14.5358 4.46396 18.6189 9.50086 18.6189C14.5378 18.6189 18.6209 14.5358 18.6209 9.49891C18.6209 4.46201 14.5378 0.378906 9.50086 0.378906ZM9.50086 13.2039C4.83256 13.2039 4.75086 12.7831 4.75086 9.49891C4.75086 6.21476 4.83256 5.79391 9.50086 5.79391C14.1692 5.79391 14.2509 6.21476 14.2509 9.49891C14.2509 12.7831 14.1692 13.2039 9.50086 13.2039Z" fill="#000000"/></symbol></svg>