<svg width="19" height="19" viewBox="0 0 19 19" fill="none" xmlns="http://www.w3.org/2000/svg">
<path class="icon__color-element" d="M11.0237 9.34026L8.89001 8.34466C8.70381 8.25821 8.55086 8.35511 8.55086 8.56126V10.4366C8.55086 10.6427 8.70381 10.7396 8.89001 10.6532L11.0228 9.65756C11.2099 9.57016 11.2099 9.42766 11.0237 9.34026ZM9.50086 0.378906C4.46396 0.378906 0.380859 4.46201 0.380859 9.49891C0.380859 14.5358 4.46396 18.6189 9.50086 18.6189C14.5378 18.6189 18.6209 14.5358 18.6209 9.49891C18.6209 4.46201 14.5378 0.378906 9.50086 0.378906ZM9.50086 13.2039C4.83256 13.2039 4.75086 12.7831 4.75086 9.49891C4.75086 6.21476 4.83256 5.79391 9.50086 5.79391C14.1692 5.79391 14.2509 6.21476 14.2509 9.49891C14.2509 12.7831 14.1692 13.2039 9.50086 13.2039Z" fill="#000000"/>
</svg>
