<svg width="19" height="19" viewBox="0 0 19 19" fill="none" xmlns="http://www.w3.org/2000/svg">
<path class="icon__color-element" d="M9.5 0C4.25323 0 0 4.25323 0 9.5C0 14.7468 4.25323 19 9.5 19C14.7468 19 19 14.7468 19 9.5C19 4.25323 14.7468 0 9.5 0ZM13.1535 10.7182C13.1535 10.7182 13.9937 11.5474 14.2005 11.9324C14.2065 11.9403 14.2094 11.9482 14.2114 11.9522C14.2955 12.0937 14.3153 12.2035 14.2738 12.2857C14.2045 12.4222 13.967 12.4895 13.8858 12.4955H12.4015C12.2985 12.4955 12.0828 12.4688 11.8216 12.2886C11.6207 12.1481 11.4228 11.9176 11.2298 11.6929C10.9418 11.3584 10.6924 11.0695 10.4411 11.0695C10.4092 11.0694 10.3774 11.0744 10.3471 11.0843C10.1571 11.1457 9.91365 11.4168 9.91365 12.1392C9.91365 12.3648 9.73552 12.4945 9.60984 12.4945H8.93C8.69844 12.4945 7.49214 12.4133 6.42339 11.2862C5.11516 9.90573 3.93755 7.13687 3.92766 7.11115C3.85344 6.93203 4.00682 6.83604 4.17406 6.83604H5.67328C5.87318 6.83604 5.93849 6.95776 5.98401 7.06562C6.03745 7.1913 6.23339 7.69104 6.555 8.25313C7.07651 9.16948 7.39615 9.54156 7.65245 9.54156C7.70051 9.541 7.74771 9.52877 7.79 9.50594C8.12448 9.3199 8.06214 8.12745 8.04729 7.88005C8.04729 7.83354 8.0463 7.34667 7.8751 7.11312C7.7524 6.94391 7.54359 6.87958 7.41693 6.85583C7.46819 6.78509 7.53574 6.72773 7.61385 6.68859C7.84344 6.5738 8.25708 6.55698 8.66776 6.55698H8.89635C9.34167 6.56292 9.45646 6.59161 9.61776 6.63219C9.94432 6.71036 9.95125 6.92115 9.92255 7.64255C9.91365 7.8474 9.90474 8.07896 9.90474 8.35208C9.90474 8.41146 9.90177 8.47479 9.90177 8.54208C9.89188 8.90922 9.88 9.32583 10.1393 9.49703C10.1731 9.51824 10.2122 9.52955 10.2521 9.52969C10.3421 9.52969 10.6133 9.52969 11.3476 8.26995C11.574 7.86447 11.7708 7.44313 11.9364 7.00922C11.9512 6.98349 11.9947 6.90432 12.0462 6.87365C12.0842 6.85429 12.1263 6.84444 12.1689 6.84495H13.9314C14.1233 6.84495 14.2549 6.87365 14.2797 6.94786C14.3232 7.06562 14.2718 7.42484 13.4672 8.51437L13.108 8.98839C12.3787 9.94432 12.3787 9.99281 13.1535 10.7182Z" fill="#000000"/>
</svg>
