<?xml version="1.0" encoding="utf-8"?><svg xmlns="http://www.w3.org/2000/svg" xmlns:xlink="http://www.w3.org/1999/xlink"><symbol viewBox="0 0 20 20" id="arrow-up-right"><path stroke="#000" stroke-linecap="round" stroke-linejoin="round" stroke-width="2" d="M5.833 14.167l8.334-8.334M5.833 5.833h8.334v8.334" class="icon__color-element"/></symbol><symbol viewBox="0 0 20 20" id="calendar"><path stroke="#000" stroke-linecap="round" stroke-linejoin="round" stroke-width="2" d="M15.833 3.333H4.167C3.247 3.333 2.5 4.08 2.5 5v11.667c0 .92.746 1.666 1.667 1.666h11.666c.92 0 1.667-.746 1.667-1.666V5c0-.92-.746-1.667-1.667-1.667zM13.333 1.667V5M6.667 1.667V5M2.5 8.333h15" class="icon__color-element"/></symbol><symbol viewBox="0 0 20 20" id="chevron-down"><path stroke="#000" stroke-linecap="round" stroke-linejoin="round" stroke-width="2" d="M5 7.5l5 5 5-5" class="icon__color-element"/></symbol><symbol viewBox="0 0 20 20" id="eye"><g clip-path="url(#dclip0_168_442)"><path stroke="#000" stroke-linecap="round" stroke-linejoin="round" stroke-width="2" d="M.833 10S4.167 3.333 10 3.333 19.167 10 19.167 10 15.833 16.667 10 16.667.833 10 .833 10z" class="icon__color-element"/><path stroke="#000" stroke-linecap="round" stroke-linejoin="round" stroke-width="2" d="M10 12.5a2.5 2.5 0 100-5 2.5 2.5 0 000 5z" class="icon__color-element"/></g><defs><clipPath id="dclip0_168_442"><path fill="#fff" d="M0 0h20v20H0z"/></clipPath></defs></symbol><symbol viewBox="0 0 20 20" id="faq"><path fill="#000" d="M10 1.25a8.75 8.75 0 10.001 17.501A8.75 8.75 0 0010 1.25zm0 16.016a7.267 7.267 0 010-14.532 7.267 7.267 0 010 14.532z" class="icon__color-element"/><path fill="#000" d="M12.18 6.186A3.293 3.293 0 0010 5.39c-.82 0-1.594.283-2.18.795-.61.533-.945 1.25-.945 2.017v.149c0 .085.07.156.156.156h.938c.086 0 .156-.07.156-.156v-.149c0-.861.842-1.562 1.875-1.562s1.875.7 1.875 1.562c0 .608-.43 1.164-1.096 1.42a2.183 2.183 0 00-1.406 2.067v.42c0 .085.07.156.156.156h.938c.086 0 .156-.07.156-.157v-.443a.945.945 0 01.604-.875c1.152-.443 1.896-1.459 1.896-2.588.002-.767-.334-1.484-.943-2.017zm-2.961 8.11a.781.781 0 101.562 0 .781.781 0 00-1.562 0z" class="icon__color-element"/></symbol><symbol viewBox="0 0 102 16" id="link-arrow-desktop"><path fill="#1175D0" d="M1 7a1 1 0 000 2V7zm100.707 1.707a1 1 0 000-1.414L95.343.929a1 1 0 10-1.414 1.414L99.586 8l-5.657 5.657a1 1 0 001.414 1.414l6.364-6.364zM1 9h100V7H1v2z"/></symbol><symbol viewBox="0 0 52 16" id="link-arrow-mobile"><path fill="#1175D0" d="M1 7a1 1 0 000 2V7zm50.707 1.707a1 1 0 000-1.414L45.343.929a1 1 0 10-1.414 1.414L49.586 8l-5.657 5.657a1 1 0 001.414 1.414l6.364-6.364zM1 9h50V7H1v2z"/></symbol><symbol viewBox="0 0 79 70" id="logo"><path fill-rule="evenodd" d="M35.447.717a1.014 1.014 0 010 1.433L3.88 33.716h34.002a1.014 1.014 0 010 2.027H3.88L35.447 67.31a1.013 1.013 0 11-1.434 1.433L.717 35.447a1.013 1.013 0 010-1.434L34.013.717a1.013 1.013 0 011.434 0z" class="icon__color-element" clip-rule="evenodd"/><path fill-rule="evenodd" d="M78.145 34.76L45.527 2.142c-2.724-2.724-7.382-.795-7.382 3.058v59.12c0 3.853 4.658 5.782 7.382 3.058L78.145 34.76zm-3.88 1.014H40.171V64.32c0 2.047 2.474 3.072 3.922 1.625l30.17-30.171zm-34.093-2.028h34.093L44.093 3.576c-1.447-1.448-3.921-.423-3.921 1.624v28.546z" class="icon__color-element" clip-rule="evenodd"/></symbol><symbol viewBox="0 0 32 16" id="long-arrow"><path fill="#000" d="M1 7a1 1 0 000 2V7zm30.707 1.707a1 1 0 000-1.414L25.343.929a1 1 0 10-1.414 1.414L29.586 8l-5.657 5.657a1 1 0 001.414 1.414l6.364-6.364zM1 9h30V7H1v2z" class="icon__color-element"/></symbol><symbol viewBox="0 0 20 20" id="map-pin"><g clip-path="url(#jclip0_168_463)"><path stroke="#000" stroke-linecap="round" stroke-linejoin="round" stroke-width="2" d="M17.5 8.334c0 5.833-7.5 10.833-7.5 10.833s-7.5-5-7.5-10.834a7.5 7.5 0 0115 0z" class="icon__color-element"/><path stroke="#000" stroke-linecap="round" stroke-linejoin="round" stroke-width="2" d="M10 10.834a2.5 2.5 0 100-5 2.5 2.5 0 000 5z" class="icon__color-element"/></g><defs><clipPath id="jclip0_168_463"><path fill="#fff" d="M0 0h20v20H0z"/></clipPath></defs></symbol><symbol viewBox="0 0 45 45" id="menu"><path stroke="#000" stroke-linecap="round" stroke-width="2" d="M9.375 22.5H26.25M9.375 35.625h26.25M9.375 9.375h26.25M31.875 28.125L37.5 22.5M31.875 16.875L37.5 22.5" class="icon__color-element"/></symbol><symbol viewBox="0 0 20 20" id="minus"><path stroke="#000" stroke-linecap="round" stroke-linejoin="round" stroke-width="2" d="M4.167 10h11.666" class="icon__color-element"/></symbol><symbol viewBox="0 0 20 20" id="ok"><path fill="#000" d="M9.988 10.284c-2.354 0-4.31-1.955-4.31-4.268 0-2.394 1.956-4.35 4.311-4.35 2.435 0 4.311 1.956 4.311 4.35a4.285 4.285 0 01-4.297 4.269h-.015zm0-6.103c-.996 0-1.755.837-1.755 1.836 0 .996.759 1.755 1.756 1.755 1.038 0 1.756-.759 1.756-1.755 0-1-.718-1.836-1.757-1.836zm1.717 9.655l2.436 2.354c.48.517.48 1.276 0 1.755-.518.517-1.318.517-1.717 0L9.99 15.551l-2.355 2.394c-.239.24-.559.358-.919.358-.28 0-.598-.12-.878-.358-.48-.48-.48-1.238 0-1.756l2.475-2.354a11.244 11.244 0 01-2.553-1.116c-.599-.319-.718-1.117-.399-1.716.4-.598 1.118-.757 1.757-.358a5.516 5.516 0 005.747 0c.64-.4 1.397-.24 1.756.358.36.6.2 1.396-.36 1.716-.757.48-1.636.838-2.554 1.118v-.001z" class="icon__color-element"/></symbol><symbol viewBox="0 0 20 20" id="plus"><path stroke="#000" stroke-linecap="round" stroke-linejoin="round" stroke-width="2" d="M10 4.167v11.666M4.167 10h11.666" class="icon__color-element"/></symbol><symbol viewBox="0 0 20 20" id="search"><path stroke="#000" stroke-linecap="round" stroke-linejoin="round" stroke-width="2" d="M9.167 15.833a6.667 6.667 0 100-13.333 6.667 6.667 0 000 13.333zM17.5 17.5l-3.625-3.625" class="icon__color-element"/></symbol><symbol viewBox="0 0 20 20" id="telegram"><path fill="#000" d="M17.22 3.098L2.447 8.794c-1.009.405-1.003.967-.185 1.218l3.793 1.184 8.777-5.538c.415-.252.794-.116.482.16l-7.11 6.418H8.2h.002l-.262 3.91c.383 0 .552-.175.767-.383l1.843-1.791 3.832 2.83c.707.39 1.215.19 1.39-.654L18.29 4.292c.258-1.032-.394-1.5-1.068-1.194z" class="icon__color-element"/></symbol><symbol viewBox="0 0 20 12" id="vk"><path fill="#000" fill-rule="evenodd" d="M17.802 8.298s1.617 1.597 2.017 2.336c.008.01.014.022.018.035.163.273.203.487.123.645-.135.261-.592.392-.747.403h-2.858c-.199 0-.613-.052-1.117-.4-.385-.269-.768-.712-1.139-1.145-.554-.643-1.033-1.201-1.518-1.201a.548.548 0 00-.18.03c-.367.116-.833.639-.833 2.032 0 .436-.344.684-.585.684H9.674c-.446 0-2.768-.156-4.827-2.327C2.324 6.732.058 1.4.037 1.353-.106 1.008.19.82.51.82h2.886c.387 0 .513.234.601.444.102.241.48 1.205 1.1 2.288C6.102 5.314 6.72 6.031 7.212 6.031a.527.527 0 00.264-.07c.644-.354.524-2.654.494-3.128 0-.092 0-1.027-.33-1.479C7.402 1.03 7 .904 6.757.858c.065-.094.203-.238.38-.323.441-.22 1.238-.252 2.03-.252h.438c.858.012 1.08.067 1.392.146.628.15.64.557.585 1.943-.016.396-.033.842-.033 1.367 0 .112-.005.237-.005.364-.019.711-.044 1.512.458 1.841a.41.41 0 00.217.062c.174 0 .695 0 2.108-2.425.62-1.071 1.1-2.334 1.133-2.429.028-.053.112-.202.214-.262a.479.479 0 01.236-.056h3.395c.37 0 .621.056.67.196.082.227-.016.92-1.566 3.016-.26.349-.49.651-.69.915-1.406 1.844-1.406 1.937.082 3.337z" class="icon__color-element" clip-rule="evenodd"/></symbol><symbol viewBox="0 0 19 19" id="youtube"><path fill="#000" d="M11.024 9.34L8.89 8.345c-.186-.087-.34.01-.34.216v1.876c0 .206.154.303.34.216l2.133-.995c.187-.088.187-.23 0-.318zM9.5.38a9.12 9.12 0 100 18.24 9.12 9.12 0 100-18.24zm0 12.825c-4.668 0-4.75-.42-4.75-3.705 0-3.284.082-3.705 4.75-3.705s4.75.42 4.75 3.705c0 3.284-.082 3.705-4.75 3.705z" class="icon__color-element"/></symbol></svg>