<?xml version="1.0" encoding="utf-8"?><svg viewBox="0 0 19 19" xmlns="http://www.w3.org/2000/svg" xmlns:xlink="http://www.w3.org/1999/xlink"><style>:root>svg{display:none}:root>svg:target{display:block}</style><svg fill="none" viewBox="0 0 19 19" id="section--icon-telegtam" xmlns="http://www.w3.org/2000/svg"><path class="aicon__color-element" d="M9.5 0a9.5 9.5 0 1 0 0 19 9.5 9.5 0 0 0 0-19Zm4.666 6.508-1.56 7.347c-.114.52-.425.647-.858.402l-2.375-1.75-1.144 1.104a.601.601 0 0 1-.475.234H7.75l.168-2.418L12.32 7.45c.19-.168-.043-.264-.295-.096L6.587 10.78l-2.344-.731c-.506-.161-.52-.507.107-.756l9.157-3.529c.425-.155.796.101.658.745h.001Z" fill="#000"/></svg><svg fill="none" viewBox="0 0 19 19" id="section--icon-vk" xmlns="http://www.w3.org/2000/svg"><path class="bicon__color-element" d="M9.5 0A9.5 9.5 0 0 0 0 9.5 9.5 9.5 0 0 0 9.5 19 9.5 9.5 0 0 0 19 9.5 9.5 9.5 0 0 0 9.5 0Zm3.653 10.718s.84.83 1.047 1.214c.007.008.01.016.011.02.085.142.104.252.063.334-.07.136-.307.204-.388.21h-1.484c-.103 0-.32-.027-.58-.207-.201-.14-.4-.371-.592-.596-.288-.335-.538-.623-.789-.623a.3.3 0 0 0-.094.014c-.19.062-.433.333-.433 1.055 0 .226-.178.356-.304.356h-.68c-.232 0-1.438-.082-2.507-1.209-1.308-1.38-2.485-4.15-2.495-4.175-.075-.179.079-.275.246-.275h1.5c.2 0 .264.122.31.23.053.125.25.625.571 1.187.522.916.841 1.289 1.097 1.289a.297.297 0 0 0 .138-.036c.334-.186.272-1.379.257-1.626 0-.046 0-.533-.172-.767-.123-.17-.331-.233-.458-.257a.544.544 0 0 1 .197-.167c.23-.115.643-.132 1.054-.132h.228c.446.006.56.035.722.075.326.078.333.29.305 1.01-.01.205-.018.437-.018.71 0 .06-.003.123-.003.19-.01.367-.022.784.237.955a.214.214 0 0 0 .113.033c.09 0 .361 0 1.096-1.26.226-.406.423-.827.588-1.26.015-.027.059-.106.11-.136.038-.02.08-.03.123-.029h1.762c.192 0 .324.029.349.103.043.118-.008.477-.813 1.566l-.359.474c-.73.956-.73 1.005.045 1.73Z" fill="#000"/></svg><svg fill="none" viewBox="0 0 19 19" id="section--icon-youtube" xmlns="http://www.w3.org/2000/svg"><path class="cicon__color-element" d="M11.024 9.34 8.89 8.345c-.186-.087-.34.01-.34.216v1.876c0 .206.154.303.34.216l2.133-.995c.187-.088.187-.23 0-.318ZM9.5.38a9.12 9.12 0 1 0 0 18.24 9.12 9.12 0 1 0 0-18.24Zm0 12.825c-4.668 0-4.75-.42-4.75-3.705 0-3.284.082-3.705 4.75-3.705s4.75.42 4.75 3.705c0 3.284-.082 3.705-4.75 3.705Z" fill="#000"/></svg></svg>