<?xml version="1.0" encoding="utf-8"?><svg xmlns="http://www.w3.org/2000/svg" xmlns:xlink="http://www.w3.org/1999/xlink"><symbol viewBox="0 0 20 20" id="icon-arrow-up-right"><path stroke="#000" stroke-linecap="round" stroke-linejoin="round" stroke-width="2" d="M5.833 14.167l8.334-8.334M5.833 5.833h8.334v8.334" class="icon__color-element"/></symbol><symbol viewBox="0 0 20 20" id="icon-eye"><g clip-path="url(#bclip0_168_442)"><path stroke="#000" stroke-linecap="round" stroke-linejoin="round" stroke-width="2" d="M.833 10S4.167 3.333 10 3.333 19.167 10 19.167 10 15.833 16.667 10 16.667.833 10 .833 10z" class="icon__color-element"/><path stroke="#000" stroke-linecap="round" stroke-linejoin="round" stroke-width="2" d="M10 12.5a2.5 2.5 0 100-5 2.5 2.5 0 000 5z" class="icon__color-element"/></g><defs><clipPath id="bclip0_168_442"><path fill="#fff" d="M0 0h20v20H0z"/></clipPath></defs></symbol><symbol viewBox="0 0 79 70" id="icon-logo"><path fill-rule="evenodd" d="M35.447.717a1.014 1.014 0 010 1.433L3.88 33.716h34.002a1.014 1.014 0 010 2.027H3.88L35.447 67.31a1.013 1.013 0 11-1.434 1.433L.717 35.447a1.013 1.013 0 010-1.434L34.013.717a1.013 1.013 0 011.434 0z" class="icon__color-element" clip-rule="evenodd"/><path fill-rule="evenodd" d="M78.145 34.76L45.527 2.142c-2.724-2.724-7.382-.795-7.382 3.058v59.12c0 3.853 4.658 5.782 7.382 3.058L78.145 34.76zm-3.88 1.014H40.171V64.32c0 2.047 2.474 3.072 3.922 1.625l30.17-30.171zm-34.093-2.028h34.093L44.093 3.576c-1.447-1.448-3.921-.423-3.921 1.624v28.546z" class="icon__color-element" clip-rule="evenodd"/></symbol><symbol viewBox="0 0 32 16" id="icon-long-arrow-left"><path fill="#000" d="M31 9a1 1 0 100-2v2zM.293 7.293a1 1 0 000 1.414l6.364 6.364a1 1 0 001.414-1.414L2.414 8l5.657-5.657A1 1 0 006.657.93L.293 7.293zM31 7H1v2h30V7z" class="icon__color-element"/></symbol><symbol viewBox="0 0 32 16" id="icon-long-arrow-right"><path fill="#000" d="M1 7a1 1 0 000 2V7zm30.707 1.707a1 1 0 000-1.414L25.343.929a1 1 0 10-1.414 1.414L29.586 8l-5.657 5.657a1 1 0 001.414 1.414l6.364-6.364zM1 9h30V7H1v2z" class="icon__color-element"/></symbol><symbol viewBox="0 0 45 45" id="icon-menu"><path stroke="#000" stroke-linecap="round" stroke-width="2" d="M9.375 22.5H26.25M9.375 35.625h26.25M9.375 9.375h26.25M31.875 28.125L37.5 22.5M31.875 16.875L37.5 22.5" class="icon__color-element"/></symbol><symbol viewBox="0 0 20 20" id="icon-search"><path stroke="#000" stroke-linecap="round" stroke-linejoin="round" stroke-width="2" d="M9.167 15.833a6.667 6.667 0 100-13.333 6.667 6.667 0 000 13.333zM17.5 17.5l-3.625-3.625" class="icon__color-element"/></symbol></svg>