<?xml version="1.0" encoding="utf-8"?><svg xmlns="http://www.w3.org/2000/svg" xmlns:xlink="http://www.w3.org/1999/xlink"><symbol fill="none" viewBox="0 0 20 20" id="icons-arrow-up-right"><path class="icon__color-element" d="M5.83325 14.1667L14.1666 5.83333" stroke="black" stroke-width="2" stroke-linecap="round" stroke-linejoin="round"/><path class="icon__color-element" d="M5.83325 5.83333H14.1666V14.1667" stroke="black" stroke-width="2" stroke-linecap="round" stroke-linejoin="round"/></symbol><symbol fill="none" viewBox="0 0 20 20" id="icons-calendar"><path class="icon__color-element" d="M15.8333 3.33334H4.16667C3.24619 3.33334 2.5 4.07954 2.5 5.00001V16.6667C2.5 17.5872 3.24619 18.3333 4.16667 18.3333H15.8333C16.7538 18.3333 17.5 17.5872 17.5 16.6667V5.00001C17.5 4.07954 16.7538 3.33334 15.8333 3.33334Z" stroke="#000000" stroke-width="2" stroke-linecap="round" stroke-linejoin="round"/><path class="icon__color-element" d="M13.3333 1.66666V4.99999" stroke="#000000" stroke-width="2" stroke-linecap="round" stroke-linejoin="round"/><path class="icon__color-element" d="M6.66675 1.66666V4.99999" stroke="#000000" stroke-width="2" stroke-linecap="round" stroke-linejoin="round"/><path class="icon__color-element" d="M2.5 8.33334H17.5" stroke="#000000" stroke-width="2" stroke-linecap="round" stroke-linejoin="round"/></symbol><symbol fill="none" viewBox="0 0 20 20" id="icons-chevron-down"><path class="icon__color-element" d="M5 7.5L10 12.5L15 7.5" stroke="#000000" stroke-width="2" stroke-linecap="round" stroke-linejoin="round"/></symbol><symbol fill="none" viewBox="0 0 16 16" id="icons-clock"><g clip-path="url(#da)"><path class="icon__color-element" d="M7.99992 14.6668C11.6818 14.6668 14.6666 11.6821 14.6666 8.00016C14.6666 4.31826 11.6818 1.3335 7.99992 1.3335C4.31802 1.3335 1.33325 4.31826 1.33325 8.00016C1.33325 11.6821 4.31802 14.6668 7.99992 14.6668Z" stroke="#000000" stroke-linecap="round" stroke-linejoin="round"/><path class="icon__color-element" d="M8 4V8L10.6667 9.33333" stroke="#000000" stroke-linecap="round" stroke-linejoin="round"/></g><defs><clipPath id="da"><rect width="16" height="16" fill="white"/></clipPath></defs></symbol><symbol fill="none" viewBox="0 0 20 20" id="icons-eye"><g clip-path="url(#ea)"><path class="icon__color-element" d="M0.833328 10C0.833328 10 4.16666 3.33334 9.99999 3.33334C15.8333 3.33334 19.1667 10 19.1667 10C19.1667 10 15.8333 16.6667 9.99999 16.6667C4.16666 16.6667 0.833328 10 0.833328 10Z" stroke="black" stroke-width="2" stroke-linecap="round" stroke-linejoin="round"/><path class="icon__color-element" d="M10 12.5C11.3807 12.5 12.5 11.3807 12.5 10C12.5 8.61929 11.3807 7.5 10 7.5C8.61929 7.5 7.5 8.61929 7.5 10C7.5 11.3807 8.61929 12.5 10 12.5Z" stroke="black" stroke-width="2" stroke-linecap="round" stroke-linejoin="round"/></g><defs><clipPath id="ea"><rect width="20" height="20" fill="white"/></clipPath></defs></symbol><symbol fill="none" viewBox="0 0 20 20" id="icons-faq"><path class="icon__color-element" d="M10 1.25C5.16797 1.25 1.25 5.16797 1.25 10C1.25 14.832 5.16797 18.75 10 18.75C14.832 18.75 18.75 14.832 18.75 10C18.75 5.16797 14.832 1.25 10 1.25ZM10 17.2656C5.98828 17.2656 2.73438 14.0117 2.73438 10C2.73438 5.98828 5.98828 2.73438 10 2.73438C14.0117 2.73438 17.2656 5.98828 17.2656 10C17.2656 14.0117 14.0117 17.2656 10 17.2656Z" fill="black"/><path class="icon__color-element" d="M12.1797 6.18555C11.5937 5.67188 10.8203 5.39062 10 5.39062C9.17969 5.39062 8.40625 5.67383 7.82031 6.18555C7.21094 6.71875 6.875 7.43555 6.875 8.20312V8.35156C6.875 8.4375 6.94531 8.50781 7.03125 8.50781H7.96875C8.05469 8.50781 8.125 8.4375 8.125 8.35156V8.20312C8.125 7.3418 8.9668 6.64062 10 6.64062C11.0332 6.64062 11.875 7.3418 11.875 8.20312C11.875 8.81055 11.4453 9.36719 10.7793 9.62305C10.3652 9.78125 10.0137 10.0586 9.76172 10.4219C9.50586 10.793 9.37305 11.2383 9.37305 11.6895V12.1094C9.37305 12.1953 9.44336 12.2656 9.5293 12.2656H10.4668C10.5527 12.2656 10.623 12.1953 10.623 12.1094V11.666C10.6241 11.4764 10.6822 11.2915 10.7898 11.1354C10.8975 10.9793 11.0497 10.8593 11.2266 10.791C12.3789 10.3477 13.123 9.33203 13.123 8.20312C13.125 7.43555 12.7891 6.71875 12.1797 6.18555ZM9.21875 14.2969C9.21875 14.5041 9.30106 14.7028 9.44757 14.8493C9.59409 14.9958 9.7928 15.0781 10 15.0781C10.2072 15.0781 10.4059 14.9958 10.5524 14.8493C10.6989 14.7028 10.7812 14.5041 10.7812 14.2969C10.7812 14.0897 10.6989 13.891 10.5524 13.7444C10.4059 13.5979 10.2072 13.5156 10 13.5156C9.7928 13.5156 9.59409 13.5979 9.44757 13.7444C9.30106 13.891 9.21875 14.0897 9.21875 14.2969Z" fill="black"/></symbol><symbol viewBox="0 0 79 70" id="icons-logo"><path class="icon__color-element" fill-rule="evenodd" clip-rule="evenodd" d="M35.4466 0.716663C35.8424 1.11246 35.8424 1.75419 35.4466 2.14999L3.8802 33.7164L37.8819 33.7164C38.4416 33.7164 38.8954 34.1702 38.8954 34.7299C38.8954 35.2897 38.4416 35.7434 37.8819 35.7434L3.8802 35.7435L35.4466 67.3099C35.8424 67.7057 35.8424 68.3474 35.4466 68.7432C35.0508 69.139 34.4091 69.139 34.0133 68.7432L0.716691 35.4466C0.320889 35.0508 0.320889 34.4091 0.716692 34.0133L34.0133 0.716663C34.4091 0.320861 35.0508 0.320861 35.4466 0.716663Z" fill="#000000"/><path class="icon__color-element" fill-rule="evenodd" clip-rule="evenodd" d="M78.1447 34.76L45.5268 2.14206C42.8026 -0.582117 38.1447 1.34725 38.1447 5.19982V64.3201C38.1447 68.1727 42.8026 70.102 45.5268 67.3779L78.1447 34.76ZM74.2645 35.7735H40.1717V64.3201C40.1717 66.3668 42.6463 67.3918 44.0935 65.9445L74.2645 35.7735ZM40.1717 33.7464H74.2645L44.0935 3.57538C42.6463 2.12816 40.1717 3.15314 40.1717 5.19982V33.7464Z" fill="#000000"/></symbol><symbol fill="none" viewBox="0 0 20 20" id="icons-map-pin"><g clip-path="url(#ha)"><path class="icon__color-element" d="M17.5 8.3335C17.5 14.1668 10 19.1668 10 19.1668C10 19.1668 2.5 14.1668 2.5 8.3335C2.5 6.34437 3.29018 4.43672 4.6967 3.03019C6.10322 1.62367 8.01088 0.833496 10 0.833496C11.9891 0.833496 13.8968 1.62367 15.3033 3.03019C16.7098 4.43672 17.5 6.34437 17.5 8.3335Z" stroke="#000000" stroke-width="2" stroke-linecap="round" stroke-linejoin="round"/><path class="icon__color-element" d="M10 10.8335C11.3807 10.8335 12.5 9.71421 12.5 8.3335C12.5 6.95278 11.3807 5.8335 10 5.8335C8.61929 5.8335 7.5 6.95278 7.5 8.3335C7.5 9.71421 8.61929 10.8335 10 10.8335Z" stroke="#000000" stroke-width="2" stroke-linecap="round" stroke-linejoin="round"/></g><defs><clipPath id="ha"><rect width="20" height="20" fill="white"/></clipPath></defs></symbol><symbol fill="none" viewBox="0 0 45 45" id="icons-menu"><path class="icon__color-element" d="M9.375 22.5H26.25" stroke="black" stroke-width="2" stroke-linecap="round"/><path class="icon__color-element" d="M9.375 35.625H35.625" stroke="black" stroke-width="2" stroke-linecap="round"/><path class="icon__color-element" d="M9.375 9.375H35.625" stroke="black" stroke-width="2" stroke-linecap="round"/><path class="icon__color-element" d="M31.875 28.125L37.5 22.5" stroke="black" stroke-width="2" stroke-linecap="round"/><path class="icon__color-element" d="M31.875 16.875L37.5 22.5" stroke="black" stroke-width="2" stroke-linecap="round"/></symbol><symbol fill="none" viewBox="0 0 20 20" id="icons-minus"><path class="icon__color-element" d="M4.16675 10H15.8334" stroke="black" stroke-width="2" stroke-linecap="round" stroke-linejoin="round"/></symbol><symbol fill="none" viewBox="0 0 20 20" id="icons-ok"><path class="icon__color-element" d="M9.98842 10.2842C7.63425 10.2842 5.67758 8.32916 5.67758 6.01582C5.67758 3.62249 7.63425 1.66666 9.98925 1.66666C12.4242 1.66666 14.3001 3.62166 14.3001 6.01582C14.2959 7.1517 13.8409 8.23944 13.035 9.03997C12.2292 9.8405 11.1385 10.2883 10.0026 10.285L9.98842 10.2842ZM9.98842 4.18082C8.99175 4.18082 8.23342 5.01832 8.23342 6.01666C8.23342 7.01332 8.99175 7.77166 9.98925 7.77166C11.0267 7.77166 11.7451 7.01332 11.7451 6.01666C11.7459 5.01749 11.0267 4.18082 9.98842 4.18082ZM11.7051 13.8358L14.1409 16.19C14.6201 16.7075 14.6201 17.4658 14.1409 17.945C13.6226 18.4625 12.8234 18.4625 12.4242 17.945L9.98925 15.5508L7.63425 17.945C7.39508 18.1842 7.07508 18.3033 6.71508 18.3033C6.43591 18.3033 6.11675 18.1833 5.83675 17.945C5.35758 17.4658 5.35758 16.7075 5.83675 16.1892L8.31175 13.835C7.41794 13.5703 6.56053 13.1955 5.75925 12.7192C5.16008 12.4 5.04092 11.6025 5.36008 11.0033C5.75925 10.405 6.47758 10.2458 7.11675 10.645C7.98225 11.1732 8.97657 11.4526 9.9905 11.4526C11.0044 11.4526 11.9988 11.1732 12.8642 10.645C13.5034 10.2458 14.2609 10.405 14.6201 11.0033C14.9801 11.6025 14.8192 12.3992 14.2601 12.7192C13.5026 13.1983 12.6242 13.5575 11.7059 13.8367L11.7051 13.8358Z" fill="black"/></symbol><symbol fill="none" viewBox="0 0 20 20" id="icons-plus"><path class="icon__color-element" d="M10 4.16667V15.8333" stroke="black" stroke-width="2" stroke-linecap="round" stroke-linejoin="round"/><path class="icon__color-element" d="M4.16675 10H15.8334" stroke="black" stroke-width="2" stroke-linecap="round" stroke-linejoin="round"/></symbol><symbol fill="none" viewBox="0 0 20 20" id="icons-search"><path class="icon__color-element" d="M9.16667 15.8333C12.8486 15.8333 15.8333 12.8486 15.8333 9.16667C15.8333 5.48477 12.8486 2.5 9.16667 2.5C5.48477 2.5 2.5 5.48477 2.5 9.16667C2.5 12.8486 5.48477 15.8333 9.16667 15.8333Z" stroke="black" stroke-width="2" stroke-linecap="round" stroke-linejoin="round"/><path class="icon__color-element" d="M17.5 17.5L13.875 13.875" stroke="black" stroke-width="2" stroke-linecap="round" stroke-linejoin="round"/></symbol><symbol fill="none" viewBox="0 0 20 20" id="icons-telegram"><path class="icon__color-element" d="M17.2208 3.0975L2.44583 8.795C1.4375 9.2 1.44333 9.7625 2.26083 10.0133L6.05416 11.1967L14.8308 5.65917C15.2458 5.40667 15.625 5.5425 15.3133 5.81917L8.2025 12.2367H8.20083L8.2025 12.2375L7.94083 16.1475C8.32416 16.1475 8.49333 15.9717 8.70833 15.7642L10.5508 13.9725L14.3833 16.8033C15.09 17.1925 15.5975 16.9925 15.7733 16.1492L18.2892 4.2925C18.5467 3.26 17.895 2.7925 17.2208 3.0975Z" fill="black"/></symbol><symbol fill="none" viewBox="0 0 19 19" id="icons-telegtam"><path class="icon__color-element" d="M9.5 0C4.25363 0 0 4.25363 0 9.5C0 14.7464 4.25363 19 9.5 19C14.7464 19 19 14.7464 19 9.5C19 4.25363 14.7464 0 9.5 0ZM14.1661 6.50829L12.6065 13.855C12.4917 14.3759 12.1814 14.5025 11.7483 14.2571L9.37333 12.5075L8.22858 13.6111C8.17249 13.6837 8.10052 13.7425 8.01818 13.783C7.93585 13.8235 7.84533 13.8446 7.75358 13.8447H7.74962L7.91825 11.4269L12.3199 7.45117C12.5099 7.28254 12.2772 7.18675 12.0246 7.35538L6.58667 10.7801L4.24333 10.0486C3.73667 9.88792 3.72242 9.54196 4.35021 9.29338L13.5066 5.76413C13.9325 5.60896 14.303 5.86546 14.1653 6.50908L14.1661 6.50829Z" fill="#000000"/></symbol><symbol fill="none" viewBox="0 0 14 14" id="icons-thin-pin"><path class="icon__color-element" d="M12.25 5.8335C12.25 9.91684 7 13.4168 7 13.4168C7 13.4168 1.75 9.91684 1.75 5.8335C1.75 4.44111 2.30312 3.10575 3.28769 2.12119C4.27226 1.13662 5.60761 0.583496 7 0.583496C8.39239 0.583496 9.72774 1.13662 10.7123 2.12119C11.6969 3.10575 12.25 4.44111 12.25 5.8335Z" stroke="#000000" stroke-linecap="round" stroke-linejoin="round"/><path class="icon__color-element" d="M7 7.5835C7.9665 7.5835 8.75 6.8 8.75 5.8335C8.75 4.867 7.9665 4.0835 7 4.0835C6.0335 4.0835 5.25 4.867 5.25 5.8335C5.25 6.8 6.0335 7.5835 7 7.5835Z" stroke="#000000" stroke-linecap="round" stroke-linejoin="round"/></symbol><symbol fill="none" viewBox="0 0 20 12" id="icons-vk"><path class="icon__color-element" fill-rule="evenodd" clip-rule="evenodd" d="M17.8021 8.29799C17.8021 8.29799 19.4191 9.89499 19.8191 10.634C19.8269 10.6447 19.8329 10.6565 19.8371 10.669C20.0001 10.942 20.0401 11.156 19.9601 11.314C19.8251 11.575 19.3681 11.706 19.2131 11.717H16.3551C16.1561 11.717 15.7421 11.665 15.2381 11.317C14.8531 11.048 14.4701 10.605 14.0991 10.172C13.5451 9.52899 13.0661 8.97099 12.5811 8.97099C12.5198 8.97086 12.459 8.981 12.4011 9.00099C12.0341 9.11699 11.5681 9.63999 11.5681 11.033C11.5681 11.469 11.2241 11.717 10.9831 11.717H9.67409C9.22809 11.717 6.90609 11.561 4.84709 9.38999C2.32409 6.73199 0.05809 1.39999 0.03609 1.35299C-0.10491 1.00799 0.19109 0.81999 0.51109 0.81999H3.39709C3.78409 0.81999 3.91009 1.05399 3.99809 1.26399C4.10009 1.50499 4.47809 2.46899 5.09809 3.55199C6.10209 5.31399 6.71909 6.03099 7.21209 6.03099C7.30471 6.03126 7.39577 6.00712 7.47609 5.96099C8.12009 5.60699 8.00009 3.30699 7.97009 2.83299C7.97009 2.74099 7.96909 1.80599 7.63909 1.35399C7.40309 1.02999 7.00109 0.903989 6.75809 0.857989C6.82309 0.763989 6.96109 0.619989 7.13809 0.534989C7.57909 0.314989 8.37609 0.28299 9.16709 0.28299H9.60609C10.4641 0.29499 10.6861 0.349989 10.9981 0.428989C11.6261 0.578989 11.6381 0.98599 11.5831 2.37199C11.5671 2.76799 11.5501 3.21399 11.5501 3.73899C11.5501 3.85099 11.5451 3.97599 11.5451 4.10299C11.5261 4.81399 11.5011 5.61499 12.0031 5.94399C12.0682 5.98455 12.1434 6.00603 12.2201 6.00599C12.3941 6.00599 12.9151 6.00599 14.3281 3.58099C14.9481 2.50999 15.4281 1.24699 15.4611 1.15199C15.4891 1.09899 15.5731 0.949989 15.6751 0.889989C15.7476 0.851385 15.8289 0.8321 15.9111 0.83399H19.3061C19.6761 0.83399 19.9271 0.88999 19.9761 1.02999C20.0581 1.25699 19.9601 1.94999 18.4101 4.04599C18.1491 4.39499 17.9201 4.69699 17.7191 4.96099C16.3141 6.80499 16.3141 6.89799 17.8021 8.29799Z" fill="black"/></symbol><symbol fill="none" viewBox="0 0 19 19" id="icons-youtube"><path class="icon__color-element" d="M11.0237 9.34026L8.89001 8.34466C8.70381 8.25821 8.55086 8.35511 8.55086 8.56126V10.4366C8.55086 10.6427 8.70381 10.7396 8.89001 10.6532L11.0228 9.65756C11.2099 9.57016 11.2099 9.42766 11.0237 9.34026ZM9.50086 0.378906C4.46396 0.378906 0.380859 4.46201 0.380859 9.49891C0.380859 14.5358 4.46396 18.6189 9.50086 18.6189C14.5378 18.6189 18.6209 14.5358 18.6209 9.49891C18.6209 4.46201 14.5378 0.378906 9.50086 0.378906ZM9.50086 13.2039C4.83256 13.2039 4.75086 12.7831 4.75086 9.49891C4.75086 6.21476 4.83256 5.79391 9.50086 5.79391C14.1692 5.79391 14.2509 6.21476 14.2509 9.49891C14.2509 12.7831 14.1692 13.2039 9.50086 13.2039Z" fill="#000000"/></symbol><symbol viewBox="0 0 16 16" id="section-koya"><path d="M 3.0292969 2.0039062 C 2.3200765 2.0039062 1.6103782 2.2724343 1.0722656 2.8105469 L 0.90820312 2.9726562 C -0.29895698 4.1798165 -0.29895698 6.154168 0.90820312 7.3613281 C 1.2332107 7.6863357 1.6381927 7.8904934 2.0605469 7.9746094 C 2.0466859 8.0694448 2.0287913 8.1634185 2.0195312 8.2597656 C 1.776073 10.793535 3.7819773 13.001953 6.328125 13.001953 L 9.671875 13.001953 C 12.217875 13.001953 14.2239 10.794386 13.980469 8.2597656 C 13.971084 8.1621257 13.953562 8.0667897 13.939453 7.9707031 C 14.361545 7.8864596 14.766509 7.6866161 15.091797 7.3613281 C 16.298957 6.154168 16.298957 4.1798164 15.091797 2.9726562 L 14.927734 2.8105469 C 14.389622 2.2724343 13.681877 2.0039062 12.972656 2.0039062 C 12.263436 2.0039062 11.553738 2.2724343 11.015625 2.8105469 L 10.779297 3.046875 C 10.649179 3.1762615 10.542879 3.3200292 10.451172 3.4707031 C 9.7521101 3.1737986 8.9909066 3 8.1894531 3 L 7.8105469 3 C 7.0097097 3 6.24941 3.1742316 5.5507812 3.4707031 C 5.4591821 3.3196234 5.3520113 3.1762301 5.2226562 3.046875 L 4.9863281 2.8105469 C 4.4482156 2.2724343 3.7385173 2.0039062 3.0292969 2.0039062 z M 3.0292969 2.9980469 C 3.4808531 2.9980469 3.9324094 3.1706907 4.2792969 3.5175781 L 4.515625 3.7539062 C 4.5725023 3.8107836 4.6171461 3.8740838 4.6601562 3.9375 C 3.5645505 4.6464422 2.7200649 5.7108947 2.296875 6.9804688 C 2.048825 6.939685 1.8080773 6.8471398 1.6152344 6.6542969 C 0.79085584 5.8299184 0.79177809 4.5065761 1.6152344 3.6816406 L 1.6152344 3.6796875 L 1.7792969 3.5175781 C 2.1261843 3.1706907 2.5777406 2.9980469 3.0292969 2.9980469 z M 12.970703 2.9980469 C 13.421771 2.9980469 13.873816 3.1706907 14.220703 3.5175781 L 14.384766 3.6796875 C 15.209606 4.5045274 15.209606 5.829457 14.384766 6.6542969 C 14.191517 6.8475456 13.95291 6.9451176 13.705078 6.9863281 C 13.282249 5.7132852 12.436303 4.645574 11.337891 3.9355469 C 11.381018 3.8726191 11.42807 3.8118478 11.484375 3.7558594 L 11.722656 3.5175781 C 12.069544 3.1706907 12.519635 2.9980469 12.970703 2.9980469 z M 7.8105469 4 L 8.1894531 4 C 10.675198 4 12.746613 5.8816514 12.984375 8.3554688 C 13.172943 10.318849 11.643875 12.001953 9.671875 12.001953 L 6.328125 12.001953 C 4.3562727 12.001953 2.8270833 10.317699 3.015625 8.3554688 C 3.2533873 5.8816513 5.3248023 4 7.8105469 4 z M 8 7.5 C 7.448 7.5 7 8.5455 7 9.0625 C 7 9.5795 7.448 10 8 10 C 8.552 10 9 9.5795 9 9.0625 C 9 8.5445 8.552 7.5 8 7.5 z M 6.1933594 8.2363281 A 0.50005 0.50005 0 0 0 6.109375 8.2421875 L 5.0390625 8.4023438 A 0.50005 0.50005 0 1 0 5.1875 9.390625 L 6.2558594 9.2324219 A 0.50005 0.50005 0 0 0 6.1933594 8.2363281 z M 9.7910156 8.2363281 A 0.50005 0.50005 0 0 0 9.7441406 9.2324219 L 10.8125 9.390625 A 0.50005 0.50005 0 1 0 10.960938 8.4023438 L 9.890625 8.2421875 A 0.50005 0.50005 0 0 0 9.7910156 8.2363281 z M 8.8222656 10.242188 A 0.50005 0.50005 0 0 0 8.5136719 10.34375 C 8.3625445 10.444722 8.1901982 10.5 8 10.5 C 7.8062548 10.5 7.6307087 10.440915 7.4765625 10.335938 A 0.50005 0.50005 0 0 0 7.1953125 10.246094 A 0.50005 0.50005 0 0 0 6.9140625 11.164062 C 7.2239163 11.375084 7.5997452 11.5 8 11.5 C 8.3918018 11.5 8.7614868 11.378857 9.0683594 11.173828 A 0.50005 0.50005 0 0 0 8.8222656 10.242188 z"/></symbol></svg>