<svg xmlns="http://www.w3.org/2000/svg" width="18" height="18" fill="none" viewBox="0 0 18 18"><path fill="#000" d="M9 4.5a1.5 1.5 0 100-3 1.5 1.5 0 000 3zM14.25 9.75v-1.5c-1.155.015-2.318-.562-3.053-1.372l-.967-1.073a1.45 1.45 0 00-.457-.337c-.008 0-.008-.008-.015-.008H9.75a1.497 1.497 0 00-.892-.195C8.07 5.333 7.5 6.03 7.5 6.818v4.432c0 .825.675 1.5 1.5 1.5h3.75v3.75h1.5v-4.125c0-.825-.675-1.5-1.5-1.5H10.5V8.288c.967.802 2.438 1.455 3.75 1.462zM9.623 13.5c-.308.87-1.14 1.5-2.123 1.5a2.247 2.247 0 01-2.25-2.25c0-.982.63-1.807 1.5-2.122V9.075a3.75 3.75 0 104.425 4.425H9.623z"/></svg>