<svg xmlns="http://www.w3.org/2000/svg" width="20" height="20" fill="none" viewBox="0 0 20 20"><path fill="#000" stroke="#4E4E4E" d="M1.625 9a7.376 7.376 0 1114.751.001A7.376 7.376 0 011.625 9zm.336 0a7.04 7.04 0 0014.078 0A7.04 7.04 0 001.961 9z"/><path fill="#000" d="M10.962 5.567A2.963 2.963 0 009 4.852c-.738 0-1.434.254-1.962.715-.548.48-.85 1.125-.85 1.816v.133c0 .078.063.141.14.141h.844c.077 0 .14-.063.14-.14v-.134c0-.775.758-1.406 1.688-1.406.93 0 1.688.63 1.688 1.406 0 .546-.387 1.047-.987 1.278a1.965 1.965 0 00-1.265 1.86v.377c0 .078.063.141.14.141h.844c.077 0 .14-.063.14-.14v-.4a.85.85 0 01.544-.787c1.037-.4 1.707-1.313 1.707-2.33.002-.69-.3-1.335-.85-1.815zm-2.665 7.3a.703.703 0 101.406 0 .703.703 0 00-1.406 0z"/></svg>