<svg xmlns="http://www.w3.org/2000/svg" width="79" height="70" viewBox="0 0 79 70"><path fill-rule="evenodd" d="M35.447.717a1.014 1.014 0 010 1.433L3.88 33.716h34.002a1.014 1.014 0 010 2.027H3.88L35.447 67.31a1.013 1.013 0 11-1.434 1.433L.717 35.447a1.013 1.013 0 010-1.434L34.013.717a1.013 1.013 0 011.434 0z" class="icon__color-element" clip-rule="evenodd"/><path fill-rule="evenodd" d="M78.145 34.76L45.527 2.142c-2.724-2.724-7.382-.795-7.382 3.058v59.12c0 3.853 4.658 5.782 7.382 3.058L78.145 34.76zm-3.88 1.014H40.171V64.32c0 2.047 2.474 3.072 3.922 1.625l30.17-30.171zm-34.093-2.028h34.093L44.093 3.576c-1.447-1.448-3.921-.423-3.921 1.624v28.546z" class="icon__color-element" clip-rule="evenodd"/></svg>