<svg xmlns="http://www.w3.org/2000/svg" width="20" height="20" fill="none" viewBox="0 0 20 20"><path fill="#000" d="M9.988 10.284c-2.354 0-4.31-1.955-4.31-4.268 0-2.394 1.956-4.35 4.311-4.35 2.435 0 4.311 1.956 4.311 4.35a4.285 4.285 0 01-4.297 4.269h-.015zm0-6.103c-.996 0-1.755.837-1.755 1.836 0 .996.759 1.755 1.756 1.755 1.038 0 1.756-.759 1.756-1.755 0-1-.718-1.836-1.757-1.836zm1.717 9.655l2.436 2.354c.48.517.48 1.276 0 1.755-.518.517-1.318.517-1.717 0L9.99 15.551l-2.355 2.394c-.239.24-.559.358-.919.358-.28 0-.598-.12-.878-.358-.48-.48-.48-1.238 0-1.756l2.475-2.354a11.244 11.244 0 01-2.553-1.116c-.599-.319-.718-1.117-.399-1.716.4-.598 1.118-.757 1.757-.358a5.516 5.516 0 005.747 0c.64-.4 1.397-.24 1.756.358.36.6.2 1.396-.36 1.716-.757.48-1.636.838-2.554 1.118v-.001z" class="icon__color-element"/></svg>