<svg xmlns="http://www.w3.org/2000/svg" width="18" height="18" fill="none" viewBox="0 0 18 18"><g clip-path="url(#clip0_1091_4718)"><path fill="#4E4E4E" d="M4.2 6.6l-.506-.322-.094.147V6.6h.6zm4.8 0l-.536-.269A.6.6 0 009 7.2v-.6zm8.4 6l.48.36.12-.16v-.2h-.6zM0 6v12h1.2V6H0zm4.706.922l3.237-5.086L6.93 1.19 3.694 6.278l1.012.644zM10.1 3.058L8.464 6.33l1.072.537 1.638-3.276-1.074-.536v.002zM9 7.2h6V6H9v1.2zM16.8 9v3.6H18V9h-1.2zm.12 3.24l-2.88 3.84.96.72 2.88-3.84-.96-.72zM12.6 16.8h-6V18h6v-1.2zM4.8 15V6.6H3.6V15h1.2zM15 7.2A1.8 1.8 0 0116.8 9H18a3 3 0 00-3-3v1.2zm-8.4 9.6A1.8 1.8 0 014.8 15H3.6a3 3 0 003 3v-1.2zM9.629 1.438a1.24 1.24 0 01.471 1.62l1.074.534a2.438 2.438 0 00-.927-3.184l-.618 1.03zM14.04 16.08a1.8 1.8 0 01-1.44.72V18a3 3 0 002.4-1.2l-.96-.72zM7.943 1.836a1.241 1.241 0 011.686-.398l.619-1.03a2.44 2.44 0 00-3.317.782l1.013.645-.001.001z"/></g><defs><clipPath id="clip0_1091_4718"><path fill="#fff" d="M0 0h18v18H0z"/></clipPath></defs></svg>