<svg xmlns="http://www.w3.org/2000/svg" width="400" height="200"><path fill="none" d="M-1-1h402v202H-1z"/><path fill="#ccc" fill-rule="evenodd" stroke="null" d="M264.743 157.928H135.257c-7.527 0-13.63-6.103-13.63-13.63V55.702c0-7.527 6.103-13.63 13.63-13.63h129.486c7.527 0 13.63 6.103 13.63 13.63v88.596c0 7.527-6.103 13.63-13.63 13.63zm6.815-102.226a6.818 6.818 0 00-6.815-6.815H135.257a6.818 6.818 0 00-6.815 6.815v88.596a6.818 6.818 0 006.815 6.815h129.486a6.818 6.818 0 006.815-6.815V55.702zm-12.492 80.81l-21.583-21.584-12.332 12.332 11.36 11.36a3.33 3.33 0 010 4.707 3.33 3.33 0 01-4.705 0l-48.844-48.844-42.028 42.029a3.33 3.33 0 01-4.706 0 3.33 3.33 0 010-4.706l43.974-43.974c.11-.164.18-.344.324-.49a3.307 3.307 0 012.436-.958 3.31 3.31 0 012.437.957c.143.147.211.327.324.49l34.722 34.723 14.278-14.277c.112-.16.18-.344.323-.49a3.321 3.321 0 012.437-.958c.879-.02 1.765.29 2.436.957.143.147.211.33.324.49l23.529 23.53a3.33 3.33 0 010 4.706 3.33 3.33 0 01-4.706 0zm-42.028-53.55c-7.528 0-13.63-6.102-13.63-13.63s6.102-13.63 13.63-13.63 13.63 6.103 13.63 13.63-6.103 13.63-13.63 13.63zm0-20.445c-3.762 0-6.815 3.053-6.815 6.815s3.053 6.815 6.815 6.815 6.815-3.053 6.815-6.815-3.054-6.815-6.815-6.815z" clip-rule="evenodd"/></svg>