<svg width="15" height="14" viewBox="0 0 15 14" fill="none" xmlns="http://www.w3.org/2000/svg">
<path d="M13.0319 5.8335C13.0319 9.91684 7.4468 13.4168 7.4468 13.4168C7.4468 13.4168 1.86169 9.91684 1.86169 5.8335C1.86169 4.44111 2.45012 3.10575 3.49753 2.12119C4.54494 1.13662 5.96554 0.583496 7.4468 0.583496C8.92806 0.583496 10.3487 1.13662 11.3961 2.12119C12.4435 3.10575 13.0319 4.44111 13.0319 5.8335Z" stroke="#4E4E4E" stroke-linecap="round" stroke-linejoin="round"/>
<path d="M7.44679 7.5835C8.47497 7.5835 9.30849 6.8 9.30849 5.8335C9.30849 4.867 8.47497 4.0835 7.44679 4.0835C6.4186 4.0835 5.58508 4.867 5.58508 5.8335C5.58508 6.8 6.4186 7.5835 7.44679 7.5835Z" stroke="#4E4E4E" stroke-linecap="round" stroke-linejoin="round"/>
</svg>
